<svg xmlns="http://www.w3.org/2000/svg" width="1102" height="384">
  <defs>
    <filter id="a" width="1099" height="184" x="3" y="0" filterUnits="userSpaceOnUse">
      <feFlood flood-color="#2c3e50" result="flood"/>
      <feComposite in2="SourceGraphic" operator="in" result="composite"/>
      <feBlend in2="SourceGraphic" result="blend"/>
    </filter>
    <filter id="b" width="624.594" height="339.688" x="6.406" y="36" filterUnits="userSpaceOnUse">
      <feFlood flood-color="#ff651a" result="flood"/>
      <feComposite in2="SourceGraphic" operator="in" result="composite"/>
      <feBlend in2="SourceGraphic" result="blend"/>
    </filter>
    <filter id="c" width="512.218" height="239.688" x="4.438" y="137.5" filterUnits="userSpaceOnUse">
      <feFlood flood-color="#ffb911" result="flood"/>
      <feComposite in2="SourceGraphic" operator="in" result="composite"/>
      <feBlend in2="SourceGraphic" result="blend"/>
    </filter>
    <filter id="d" width="379.438" height="258.188" x="2" y="123.812" filterUnits="userSpaceOnUse">
      <feFlood flood-color="#fff338" result="flood"/>
      <feComposite in2="SourceGraphic" operator="in" result="composite"/>
      <feBlend in2="SourceGraphic" result="blend"/>
    </filter>
    <filter id="e" width="103" height="103" x="4" y="277" filterUnits="userSpaceOnUse">
      <feGaussianBlur in="SourceAlpha" result="blur" stdDeviation="9"/>
      <feComposite result="composite"/>
      <feComposite result="composite-2"/>
      <feComposite result="composite-3"/>
      <feFlood flood-color="#ffffe0" result="flood"/>
      <feComposite in2="composite-3" operator="in" result="composite-4"/>
      <feBlend in2="SourceGraphic" mode="lighten" result="blend"/>
      <feBlend in="SourceGraphic" result="blend-2"/>
    </filter>
    <filter id="f" width="122" height="72" x="385" y="72" filterUnits="userSpaceOnUse">
      <feFlood flood-color="#2c3e50" result="flood"/>
      <feComposite in2="SourceGraphic" operator="in" result="composite"/>
      <feBlend in2="SourceGraphic" result="blend"/>
    </filter>
    <filter id="g" width="716" height="66" x="382" y="224" filterUnits="userSpaceOnUse">
      <feFlood flood-color="#2c3e50" result="flood"/>
      <feComposite in2="SourceGraphic" operator="in" result="composite"/>
      <feBlend in2="SourceGraphic" result="blend"/>
    </filter>
  </defs>
  <text x="-5" y="142" fill="#fefffe" data-name="digital comet" filter="url(#a)" font-family="Myriad Pro" font-size="200">
    digital comet
  </text>
  <path fill="#1f1aff" fill-rule="evenodd" d="M42.357 279.21c-22.126 7.353-23.386 10.765-30.043 23.233S5.263 323.908 7.96 332.07s3 17.05 15.95 28.988 24.921 17.593 44.979 13.06 21.4-9.743 36.178-20.608 27.171-23.3 65.9-45.936c60.717-35.484 72.909-79.191 144.368-103.112s100.451-36.844 169.349-91.956c78.429-62.735 75.786-55.7 146.33-76.491-136.37 22.673-175.377 86.155-213.933 94.138-40.923 8.474-66.66 11.062-96.663 21.694-51.918 18.395-75.118 53.438-156.895 84.674s-99.04 35.335-121.166 42.689z" filter="url(#b)"/>
  <path fill="#6299fd" fill-rule="evenodd" d="M52.007 274.5c-31.884 11.365-39.477 29.34-45.7 44.6s4.656 30.02 10.633 36.245 25.46 21.083 38.076 21.634 17.508-.2 17.508-.2 8.669-3.313 20.978-11.651 14.807-23.431 34.34-38.615c20.765-16.143 21.516-13.99 44.756-27.852 22.762-13.576 40.4-15.456 65.73-22.948s54.139-24.815 59.456-32.072 40.623-28.084 47.088-28.73c7.582-.756 50.814-8.155 84.842-34.568 20.127-15.624 68.918-35.681 84.457-41.658 17.522-6.741-61.838 16.713-98.134 27.331-8.841 2.586-40.478 21.267-88 21.117-42.374-.134-69.479 35.947-89.784 39.622-54.315 9.831-70.232 6.956-108.089 26.1-19.493 9.845-46.272 10.28-78.157 21.645z" filter="url(#c)"/>
  <path fill="#a9dcff" fill-rule="evenodd" d="M199.672 213.415c-54.269 41.65-61.485 46.684-95.043 51.874s-42.612 4.544-64.32 9.948C17.563 280.9-2.2 310.407 2.771 333.23 6.1 348.511 12.936 373.6 49.56 381.04c12.059 2.45 23.425 1.024 43.848-15s23.6-34.749 49.678-46.645 30.152-22.536 80.863-32.524 54.2-19.821 92.739-43.654-9.138 5.7-48.289 11.758-71.8 3.242-85.726 10.4 22.579-11.356 55.351-49.309 21.782-28.033 57.9-53.636 64.473-33.846 79.809-37.008c27.749-5.721-52.87 3.444-99.365 33.241-47.42 30.387-48.624 33.207-76.696 54.752z" filter="url(#d)"/>
  <path fill="#fff" fill-rule="evenodd" d="M67.938 310.283a22.491 22.491 0 1 1-31.461 4.866 22.459 22.459 0 0 1 31.461-4.866z" filter="url(#e)"/>
  <text x="-5" y="142" fill="#fefffe" data-name="digital comet top" filter="url(#f)" font-family="Myriad Pro" font-size="200">
    digital comet
  </text>
  <text x="1101.924" y="275" fill="#fefffe" data-name="webdesign - consulting" filter="url(#g)" font-family="Myriad Pro" font-size="72" text-anchor="end">
    <tspan x="1101.924">webdesign - consulting</tspan>
  </text>
</svg>
