<?xml version="1.0" standalone="no"?>
<!DOCTYPE svg PUBLIC "-//W3C//DTD SVG 20010904//EN"
 "http://www.w3.org/TR/2001/REC-SVG-20010904/DTD/svg10.dtd">
<svg version="1.0" xmlns="http://www.w3.org/2000/svg"
 width="512.000000pt" height="512.000000pt" viewBox="0 0 512.000000 512.000000"
 preserveAspectRatio="xMidYMid meet">
<metadata>
Created by potrace 1.11, written by Peter Selinger 2001-2013
</metadata>
<g transform="translate(0.000000,512.000000) scale(0.100000,-0.100000)"
fill="#000000" stroke="none">
<path d="M5030 5079 c-213 -126 -317 -190 -370 -227 -76 -53 -213 -154 -220
-162 -3 -3 -38 -31 -78 -64 -82 -65 -315 -291 -387 -376 -26 -30 -57 -66 -69
-80 -12 -14 -98 -124 -192 -245 -94 -121 -200 -247 -236 -281 -60 -56 -178
-128 -418 -257 -41 -22 -113 -62 -159 -89 -46 -26 -85 -48 -87 -48 -2 0 -49
-29 -104 -65 -142 -93 -266 -189 -309 -238 -9 -10 -25 -23 -35 -29 -37 -20
108 148 241 280 74 72 138 132 142 132 4 0 19 10 32 21 20 18 96 70 215 146
37 24 -39 -11 -101 -46 -371 -210 -622 -416 -841 -691 -199 -249 -249 -319
-572 -799 -59 -88 -91 -124 -157 -178 -31 -26 -422 -338 -495 -396 -152 -120
-291 -213 -445 -296 -172 -94 -250 -170 -304 -296 -49 -118 -62 -278 -28 -373
39 -111 152 -251 251 -311 141 -85 368 -95 510 -24 96 49 227 209 301 368 36
79 136 232 248 380 33 44 63 82 67 85 3 3 21 25 40 50 19 25 49 61 66 80 81
89 106 119 146 171 55 73 112 114 343 251 318 190 377 240 588 505 134 169
150 189 212 262 53 63 60 77 20 41 -21 -19 -44 -39 -51 -45 -6 -5 -35 -30 -64
-55 -29 -25 -63 -51 -74 -59 -12 -8 -23 -18 -26 -21 -3 -3 -19 -16 -36 -28
l-31 -22 29 58 c42 79 89 144 192 261 92 105 144 152 205 184 248 132 470 318
622 522 117 156 150 195 265 309 67 67 226 214 289 267 63 54 97 84 135 118
34 32 34 31 -25 -6 -33 -21 -64 -42 -70 -46 -5 -4 -77 -53 -160 -109 -380
-255 -566 -387 -644 -452 -165 -140 -166 -136 -6 29 17 17 99 113 164 190 68
81 236 319 417 590 269 403 287 429 383 550 140 176 235 258 518 446 192 128
178 118 172 123 -2 2 -11 0 -19 -5z"/>
</g>
</svg>
